<svg width="80" height="80" viewBox="0 0 80 80" fill="none" xmlns="http://www.w3.org/2000/svg">
<g clip-path="url(#clip0_17_34)">
<path d="M40 0C17.91 0 0 17.91 0 40C0 62.09 17.91 80 40 80C62.09 80 80 62.09 80 40C80 17.91 62.09 0 40 0ZM23.2067 25.6C25.72 25.6 27.6633 27.43 27.89 29.6C28.12 31.5433 27.32 33.2567 25.15 34.2867C24.0067 34.8567 23.55 34.86 23.32 34.5167C23.2067 34.2867 23.32 34.06 23.55 33.83C25.6067 32.1167 25.6067 30.7433 25.3767 28.8033C25.2633 27.5433 24.35 26.7433 23.4333 26.7433C19.4333 26.7433 13.72 35.6567 14.52 42.1733C14.8633 44.6867 16.35 47.66 19.55 47.66C20.5767 47.66 21.7167 47.3167 22.75 46.86C24.4167 45.98 25.4133 45.2933 26.4067 44.1933C26.1633 41.2433 28.7533 37.3733 32.5767 37.3733C34.2933 37.3733 35.6633 38.0567 35.7767 39.3167C36.0033 41.03 34.52 41.2567 34.0633 41.2567C33.6067 41.2567 32.8033 41.1433 32.8033 40.69C32.69 40.23 33.8333 40.4567 33.72 39.43C33.6033 38.7433 32.92 38.5167 32.2333 38.5167C29.8333 38.5167 28.4633 41.83 28.8033 43.8867C28.92 44.8033 29.3767 45.7167 30.2933 45.7167C30.9767 45.7167 32.0067 44.6833 32.35 43.2C32.5767 42.1733 33.4933 41.4867 34.2933 41.4867C34.6333 41.4867 34.86 41.6 34.9767 42.0567V42.5167C34.8633 42.9733 34.52 44.3433 34.6367 44.6867C34.6367 44.9167 34.75 45.2567 35.2033 45.2567C35.51 45.2567 36.6567 44.6567 37.7933 43.7267C38.1833 41.76 38.6367 39.4 38.6367 39.2033C38.75 38.4033 39.0933 37.6033 40.6933 37.6033C41.0367 37.6033 41.2633 37.7167 41.3767 38.1733V38.6333L40.9233 40.69C42.4067 38.7467 44.58 37.3767 45.95 37.3767C46.5233 37.3767 46.98 37.7167 46.98 38.29C46.98 38.6333 46.98 39.2033 46.75 39.7767C46.2933 41.0333 45.72 42.9767 45.3767 44.69C45.3767 45.1467 45.4933 45.6033 46.0667 45.6033C46.64 45.6033 48.35 44.9167 49.72 43.09L49.7433 43.0767C49.7367 42.85 49.72 42.63 49.72 42.4033C49.72 41.0333 49.8367 39.89 50.0667 39.09C50.2933 38.1767 51.4367 37.3767 52.1233 37.3767C52.4667 37.3767 52.8067 37.6067 52.8067 37.9467C52.8067 38.0633 52.8067 38.29 52.6933 38.4033C52.2367 39.89 51.8933 41.26 51.8933 42.6333C51.8933 43.4333 52.0067 44.5733 52.2333 45.26C52.2333 45.3733 52.35 45.49 52.4667 45.49C52.6933 45.49 54.2933 44.0067 55.4333 42.0633C54.4067 41.3767 53.8333 40.2333 53.8333 38.8633C53.8333 36.4633 55.32 35.2067 56.6933 35.2067C57.8367 35.2067 58.75 36.0067 58.75 37.6067C58.75 38.6333 58.4067 39.7733 57.8367 40.8067H58.1767C58.5392 40.8185 58.9002 40.7533 59.2358 40.6154C59.5713 40.4775 59.8738 40.27 60.1233 40.0067C60.2294 39.8345 60.3851 39.6985 60.57 39.6167C61.6867 38.2 63.3367 37.15 65.27 37.15C66.87 37.15 68.35 37.8333 68.4667 39.09C68.6933 40.8067 67.2067 41.15 66.75 41.15L66.7433 41.1433C66.2833 41.1433 65.4867 41.0267 65.4867 40.57C65.4867 40.1133 66.5167 40.3433 66.4 39.3167C66.2867 38.63 65.6 38.4 64.9133 38.4C62.6267 38.4 61.1467 41.37 61.4867 43.77C61.6 44.6867 62.0567 45.7133 62.97 45.7133C63.6567 45.7133 64.6867 44.6867 65.1433 43.2C65.37 42.2867 66.2867 41.4867 67.0867 41.4867C67.43 41.4867 67.6533 41.6 67.77 42.0567C67.77 42.2867 67.77 42.7433 67.3133 44.23C66.7467 45.2567 66.7433 45.83 66.8567 46.2867C66.97 47.2 67.4267 47.8867 67.8867 48.23C68 48.3433 68.1133 48.57 68.1133 48.57C68.1133 48.8 68 49.03 67.6567 49.03C67.5433 49.03 67.43 49.03 67.3133 48.9133C65.6 48.23 64.9133 47.0867 64.6833 45.9433C64 46.7433 63.2 47.2 62.2833 47.2C60.8 47.2 59.3167 45.83 59.0833 44.1133C59.017 43.3827 59.1021 42.6462 59.3333 41.95C58.6567 42.3833 57.9267 42.6267 57.2567 42.6267H56.69C55.2 44.8 53.6 46.2867 52.4567 46.97C52.0683 47.1763 51.6392 47.2946 51.2 47.3167C50.9733 47.3167 50.63 47.2 50.5167 46.97C50.2 46.4633 49.9967 45.6633 49.8733 44.7467C48.27 46.5033 46.0567 47.43 45.03 47.43C43.8867 47.43 43.2033 46.7433 43.09 45.5967V44.3433C43.43 41.83 44.3467 40.3433 44.3467 39.8867C44.3435 39.8264 44.3184 39.7693 44.276 39.7263C44.2336 39.6833 44.1769 39.6573 44.1167 39.6533C43.3167 39.6533 40.69 42.4 40.23 44.23L39.8867 45.7133C39.66 46.7433 38.63 47.43 37.9467 47.43C37.6033 47.43 37.3733 47.3133 37.26 46.8567V46.4L37.4133 45.6233C35.9633 46.6567 34.5133 47.3167 33.83 47.3167C32.8033 47.3167 32.23 46.7433 32.1167 45.9433C31.43 46.8567 30.6333 47.3167 29.6033 47.3167C28.43 47.3167 27.2833 46.5167 26.73 45.34C25.9167 46.2567 24.9867 47.1833 23.89 47.8867C22.29 48.9167 20.4633 49.7167 18.29 49.7167C16.35 49.7167 14.6333 48.6867 13.72 47.7733C12.3467 46.5167 11.55 44.5733 11.4333 42.7433C10.75 37.1433 14.1767 29.9433 19.4333 26.7433C20.6933 26.06 21.95 25.6 23.2067 25.6ZM55.7733 36.57C55.4267 36.57 55.2 37.1433 55.2 37.7133C55.2 38.6267 55.6567 39.6567 56.23 40.23C56.4561 39.6071 56.5712 38.9493 56.57 38.2867C56.57 37.1433 56.1167 36.57 55.7733 36.57Z" fill="#333333"/>
</g>
<defs>
<clipPath id="clip0_17_34">
<rect width="80" height="80" fill="white"/>
</clipPath>
</defs>
</svg>
