<svg width="80" height="80" viewBox="0 0 80 80" fill="none" xmlns="http://www.w3.org/2000/svg">
<path d="M68.31 22.4166C69.1634 21.3032 70.4834 20.6499 71.8867 20.6499H73.02L58.38 39.7932L73.3334 59.3432H72.2C71.5082 59.3435 70.8256 59.1843 70.2052 58.8779C69.5849 58.5715 69.0436 58.1262 68.6234 57.5766L56.7034 41.9899L44.78 57.5766C44.3601 58.1257 43.8194 58.5708 43.1997 58.8771C42.58 59.1835 41.898 59.343 41.2067 59.3432H40.0734L55.0234 39.7932L40.3867 20.6499H41.52C42.92 20.6499 44.2434 21.3032 45.0934 22.4166L56.7 37.5966L68.31 22.4166Z" fill="white"/>
<path fill-rule="evenodd" clip-rule="evenodd" d="M18.5433 57.1533C24.9566 59.4933 31.6633 56.8399 35.0733 51.6633C35.74 50.6466 36.84 50.0033 38.06 50.0033H38.91C35.7766 58.1266 26.51 62.8566 17.7 59.6866C10.9566 57.2599 6.66663 50.5966 6.66663 43.4299V35.9999C6.66957 33.6748 7.15799 31.376 8.10062 29.2506C9.04325 27.1251 10.4193 25.22 12.1407 23.657C13.8621 22.0941 15.8909 20.9078 18.0972 20.1742C20.3035 19.4405 22.6387 19.1757 24.9533 19.3966C33.5966 20.2066 40.0233 27.8066 40.0233 36.4866V41.9999H9.33663V43.4799C9.33663 49.4866 12.9 55.0966 18.5433 57.1533ZM23.3433 21.9866C19.6307 21.9936 16.0721 23.4716 13.4469 26.0968C10.8216 28.7221 9.34367 32.2806 9.33663 35.9933V39.3333H37.3566V35.9999C37.3513 32.2856 35.8737 28.7248 33.2476 26.098C30.6214 23.4713 27.061 21.9928 23.3466 21.9866" fill="white"/>
</svg>
