<svg width="80" height="80" viewBox="0 0 80 80" fill="none" xmlns="http://www.w3.org/2000/svg">
<path fill-rule="evenodd" clip-rule="evenodd" d="M28.89 31.3901C27.7593 31.3901 26.6397 31.6128 25.5951 32.0455C24.5505 32.4782 23.6013 33.1124 22.8018 33.9119C22.0023 34.7114 21.3681 35.6606 20.9354 36.7052C20.5027 37.7498 20.28 38.8694 20.28 40.0001C20.28 41.1308 20.5027 42.2504 20.9354 43.295C21.3681 44.3396 22.0023 45.2888 22.8018 46.0883C23.6013 46.8878 24.5505 47.522 25.5951 47.9547C26.6397 48.3874 27.7593 48.6101 28.89 48.6101H37.5V31.3901H28.89ZM37.5 26.3901H28.89C26.606 26.3901 24.4156 25.4828 22.8006 23.8678C21.1856 22.2528 20.2783 20.0624 20.2783 17.7784C20.2783 15.4945 21.1856 13.304 22.8006 11.689C24.4156 10.074 26.606 9.16675 28.89 9.16675H37.5V26.3901ZM42.5 9.16675V26.3901H51.11C53.3646 26.3457 55.5119 25.4189 57.0907 23.8088C58.6695 22.1986 59.5539 20.0335 59.5539 17.7784C59.5539 15.5234 58.6695 13.3582 57.0907 11.7481C55.5119 10.1379 53.3646 9.21111 51.11 9.16675H42.5ZM51.11 31.3867C48.85 31.3865 46.6804 32.2748 45.0696 33.86C43.4588 35.4453 42.5359 37.6003 42.5 39.8601V40.1367C42.5276 41.8334 43.0559 43.4841 44.0186 44.8815C44.9813 46.2788 46.3354 47.3606 47.9109 47.9908C49.4864 48.6211 51.213 48.7718 52.8739 48.4239C54.5347 48.076 56.0558 47.2452 57.2459 46.0356C58.4361 44.8261 59.2423 43.2919 59.5634 41.6256C59.8844 39.9594 59.7059 38.2355 59.0503 36.6703C58.3947 35.1052 57.2913 33.7687 55.8786 32.8286C54.4659 31.8886 52.8069 31.387 51.11 31.3867ZM28.89 53.6101C27.1863 53.6094 25.5207 54.114 24.1038 55.0601C22.6869 56.0061 21.5824 57.3511 20.9299 58.9249C20.2775 60.4987 20.1064 62.2307 20.4384 63.9017C20.7704 65.5728 21.5905 67.1079 22.7949 68.3128C23.9994 69.5177 25.5341 70.3384 27.205 70.671C28.876 71.0036 30.608 70.8332 32.1821 70.1814C33.7561 69.5296 35.1016 68.4256 36.0481 67.0091C36.9947 65.5925 37.5 63.9271 37.5 62.2234V53.6101H28.89Z" fill="#333333"/>
</svg>
