<svg width="80" height="80" viewBox="0 0 80 80" fill="none" xmlns="http://www.w3.org/2000/svg">
<path d="M66.6667 62.3L42.3334 75.8C40.6667 76.6666 39 76.6666 37.3334 75.8L13.3334 62.3L56.8334 18.4666L58 18.1333C59 18.1333 59.5667 18.5666 59.6667 19.4666L66.6667 62.3ZM31.1667 19.1333L16 44.3L22.3334 4.46663C22.4334 3.56663 23 3.1333 24 3.1333C24.6667 3.1333 25.1 3.3333 25.3334 3.96663L32.5 17.1333L31.1667 19.1333ZM46.1667 23.3333L14.3334 55.3L38.5 14.3C38.8334 13.6333 39.3334 13.3333 40 13.3333C40.6667 13.3333 41.1 13.6333 41.3334 14.3L46.1667 23.3333Z" fill="white"/>
</svg>
