<svg width="80" height="80" viewBox="0 0 80 80" fill="none" xmlns="http://www.w3.org/2000/svg">
<path d="M40 6.66675C35.6226 6.66675 31.288 7.52894 27.2438 9.2041C23.1997 10.8793 19.525 13.3346 16.4297 16.4299C10.1785 22.6811 6.66663 31.1595 6.66663 40.0001C6.66663 54.7334 16.2333 67.2334 29.4666 71.6667C31.1333 71.9334 31.6666 70.9001 31.6666 70.0001V64.3667C22.4333 66.3667 20.4666 59.9001 20.4666 59.9001C18.9333 56.0334 16.7666 55.0001 16.7666 55.0001C13.7333 52.9334 17 53.0001 17 53.0001C20.3333 53.2334 22.1 56.4334 22.1 56.4334C25 61.5001 29.9 60.0001 31.8 59.2001C32.1 57.0334 32.9666 55.5667 33.9 54.7334C26.5 53.9001 18.7333 51.0334 18.7333 38.3334C18.7333 34.6334 20 31.6667 22.1666 29.3001C21.8333 28.4667 20.6666 25.0001 22.5 20.5001C22.5 20.5001 25.3 19.6001 31.6666 23.9001C34.3 23.1667 37.1666 22.8001 40 22.8001C42.8333 22.8001 45.7 23.1667 48.3333 23.9001C54.7 19.6001 57.5 20.5001 57.5 20.5001C59.3333 25.0001 58.1666 28.4667 57.8333 29.3001C60 31.6667 61.2666 34.6334 61.2666 38.3334C61.2666 51.0667 53.4666 53.8667 46.0333 54.7001C47.2333 55.7334 48.3333 57.7667 48.3333 60.8667V70.0001C48.3333 70.9001 48.8666 71.9667 50.5666 71.6667C63.8 67.2001 73.3333 54.7334 73.3333 40.0001C73.3333 35.6227 72.4711 31.2882 70.796 27.244C69.1208 23.1998 66.6655 19.5251 63.5702 16.4299C60.4749 13.3346 56.8003 10.8793 52.7561 9.2041C48.7119 7.52894 44.3774 6.66675 40 6.66675Z" fill="#333333"/>
</svg>
