<svg width="87" height="87" viewBox="0 0 87 87" fill="none" xmlns="http://www.w3.org/2000/svg">
<path d="M63.0561 23.649H63.0919M25.4332 7.52496H61.2645C71.159 7.52496 79.1802 15.5461 79.1802 25.4406V61.2719C79.1802 71.1664 71.159 79.1875 61.2645 79.1875H25.4332C15.5387 79.1875 7.51758 71.1664 7.51758 61.2719V25.4406C7.51758 15.5461 15.5387 7.52496 25.4332 7.52496ZM57.6814 41.0989C58.1236 44.0809 57.6142 47.1265 56.2258 49.8024C54.8373 52.4782 52.6404 54.6482 49.9476 56.0035C47.2549 57.3589 44.2033 57.8306 41.2269 57.3517C38.2505 56.8728 35.501 55.4675 33.3693 53.3358C31.2376 51.2042 29.8323 48.4546 29.3534 45.4782C28.8745 42.5019 29.3462 39.4503 30.7016 36.7575C32.0569 34.0647 34.2269 31.8678 36.9028 30.4794C39.5786 29.0909 42.6242 28.5815 45.6062 29.0237C48.648 29.4748 51.4641 30.8922 53.6385 33.0666C55.8129 35.241 57.2303 38.0571 57.6814 41.0989Z" stroke="white" stroke-width="6" stroke-linecap="round" stroke-linejoin="round"/>
</svg>
