<svg width="80" height="80" viewBox="0 0 80 80" fill="none" xmlns="http://www.w3.org/2000/svg">
<path d="M5 5V75H75V5H5ZM43.095 59.5925C43.095 66.405 39.095 69.515 33.2675 69.515C28.0025 69.515 24.955 66.7975 23.3925 63.5L28.7525 60.265C29.785 62.0925 30.7225 63.64 32.9875 63.64C35.1425 63.64 36.5175 62.795 36.5175 59.5V37.14H43.095V59.5925ZM58.655 69.515C52.545 69.515 48.5925 66.61 46.67 62.795L52.03 59.7025C53.4375 62 55.28 63.7025 58.515 63.7025C61.2325 63.7025 62.985 62.3425 62.985 60.4525C62.985 58.2025 61.2025 57.405 58.1875 56.0775L56.5475 55.375C51.7975 53.36 48.6575 50.8125 48.6575 45.4525C48.6575 40.515 52.4225 36.765 58.2825 36.765C62.47 36.765 65.47 38.2175 67.6275 42.03L62.5025 45.3125C61.3775 43.2975 60.1575 42.5 58.2675 42.5C56.3475 42.5 55.1275 43.72 55.1275 45.3125C55.1275 47.2825 56.3475 48.0775 59.175 49.3125L60.815 50.015C66.41 52.405 69.55 54.86 69.55 60.3575C69.55 66.265 64.8925 69.5125 58.6575 69.5125L58.655 69.515Z" fill="white"/>
</svg>
