<svg width="87" height="87" viewBox="0 0 87 87" fill="none" xmlns="http://www.w3.org/2000/svg">
<path d="M57.6741 29.0237C63.3759 29.0237 68.8442 31.2888 72.876 35.3206C76.9078 39.3524 79.1728 44.8207 79.1728 50.5225V75.6044H64.8403V50.5225C64.8403 48.6219 64.0853 46.7991 62.7414 45.4552C61.3974 44.1113 59.5747 43.3563 57.6741 43.3563C55.7734 43.3563 53.9507 44.1113 52.6067 45.4552C51.2628 46.7991 50.5078 48.6219 50.5078 50.5225V75.6044H36.1753V50.5225C36.1753 44.8207 38.4403 39.3524 42.4721 35.3206C46.5039 31.2888 51.9722 29.0237 57.6741 29.0237Z" stroke="white" stroke-width="6" stroke-linecap="round" stroke-linejoin="round"/>
<path d="M21.8428 32.6069H7.51025V75.6044H21.8428V32.6069Z" stroke="white" stroke-width="6" stroke-linecap="round" stroke-linejoin="round"/>
<path d="M14.6765 21.8575C18.6343 21.8575 21.8428 18.649 21.8428 14.6912C21.8428 10.7334 18.6343 7.52496 14.6765 7.52496C10.7187 7.52496 7.51025 10.7334 7.51025 14.6912C7.51025 18.649 10.7187 21.8575 14.6765 21.8575Z" stroke="white" stroke-width="6" stroke-linecap="round" stroke-linejoin="round"/>
</svg>
