<svg width="80" height="80" viewBox="0 0 80 80" fill="none" xmlns="http://www.w3.org/2000/svg">
<path fill-rule="evenodd" clip-rule="evenodd" d="M51.7519 21.3936C50.1244 16.3261 47.5138 11.8411 43.835 7.98177C42.905 7.00552 41.8713 6.11114 41.2225 4.89677C40.8125 4.12802 40.4219 3.34864 40.0225 2.57489L39.7688 1.93677L39.6981 2.18802C39.665 3.45052 38.95 4.30614 38.06 5.10552C37.0575 6.00427 36.125 6.98052 35.1625 7.92364L32.2025 11.8168L29.8094 16.218L28.2088 20.5399L28.1606 20.6068C27.28 23.4999 26.8456 26.4749 26.6325 29.4786C26.5519 30.608 26.6444 31.753 26.7075 32.888C26.7981 34.5105 27.08 36.1049 27.5025 37.6755C29.0381 43.3793 32.155 48.1099 36.4169 52.1299C37.2081 52.8768 38.0638 53.5561 38.8894 54.2661L39.255 55.5211L39.595 57.4686L39.7575 59.5018C39.7556 59.9143 39.7388 60.3286 39.7631 60.7399C39.77 60.8455 39.9075 60.943 39.985 61.0443L40.675 61.2868L41.3931 61.5661L41.27 59.7593L41.2644 57.9793L41.5125 55.268L41.6925 54.678L42.2081 53.7649C42.8444 53.2536 43.5263 52.7886 44.1056 52.2193C45.1538 51.1899 46.2 50.1461 47.1381 49.018C48.3586 47.5557 49.4011 45.9537 50.2438 44.2455C50.8056 43.0999 51.3356 41.9311 51.7738 40.7343C52.16 39.6793 52.3994 38.5699 52.7038 37.4843L52.7838 37.2499C53.4119 34.3199 53.5175 31.3599 53.2869 28.3811C53.1013 25.9805 52.5369 23.6636 51.7519 21.3936ZM39.3144 52.8155C39.4106 52.3336 39.53 51.8543 39.6169 51.3705C39.53 51.8543 39.4113 52.3336 39.3144 52.8155ZM66.5463 64.3524C66.03 63.363 65.2725 62.6118 64.2713 62.1186C63.4325 61.7061 62.5306 61.5249 61.6031 61.4986C60.9081 61.4786 60.2106 61.5143 59.5144 61.523C58.8963 61.5305 58.2775 61.5411 57.6594 61.5355C56.9325 61.528 56.2056 61.5061 55.4788 61.4855C55.3581 61.4818 55.2725 61.5061 55.2163 61.6286C55.1281 61.8193 55.0238 62.003 54.9156 62.2118L55.0369 62.2505C55.3975 62.3143 55.76 62.3686 56.1188 62.4405C56.58 62.5324 56.7875 62.7974 56.8088 63.1861C56.8392 63.7403 56.8531 64.2949 56.8506 64.8499C56.8413 67.0461 56.8256 69.2424 56.8094 71.438C56.8081 71.583 56.8056 71.7343 56.7663 71.8705C56.7206 72.028 56.6713 72.2318 56.5538 72.3093C56.3424 72.4452 56.1051 72.5356 55.8569 72.5749C55.5063 72.6324 55.4475 72.648 55.3381 72.993L55.2906 73.1655C55.2381 73.3536 55.2663 73.3905 55.4625 73.3924C56.5888 73.4049 57.7144 73.4293 58.84 73.4255C59.8669 73.4218 60.8938 73.4843 61.9169 73.2911C62.8838 73.1093 63.7863 72.7905 64.61 72.2511C65.6788 71.5505 66.4475 70.6143 66.8531 69.3924C67.1806 68.4055 67.2538 67.3986 67.1425 66.3668C67.0735 65.6635 66.8712 64.9799 66.5463 64.3524ZM64.5731 70.3905C63.9706 71.5118 63.0719 72.2605 61.7875 72.458C60.9831 72.5811 60.1775 72.5455 59.4106 72.2411C58.925 72.0486 58.7444 71.6293 58.7294 71.1336C58.7156 70.6479 58.7087 70.162 58.7088 69.6761C58.7063 67.9674 58.7063 66.2589 58.7088 64.5505C58.71 64.0124 58.7194 63.473 58.7281 62.9343C58.7344 62.5555 58.8138 62.4286 59.1831 62.398C60.8056 62.2618 62.3538 62.4368 63.6394 63.5786C64.4344 64.2849 64.8869 65.1855 65.075 66.2199C65.1531 66.6511 65.1769 67.0924 65.2256 67.5299C65.1863 68.5286 65.0513 69.5005 64.5731 70.3905ZM78.1913 68.5399C77.8713 67.7611 77.265 67.273 76.5031 66.9605C76.2431 66.8536 75.975 66.7655 75.6944 66.6618L75.7925 66.5993C76.0956 66.4049 76.4331 66.248 76.6944 66.0086C77.3294 65.4268 77.5931 64.6949 77.4694 63.8255C77.3519 62.9986 76.9394 62.3918 76.2025 61.998C75.5338 61.6418 74.8125 61.5118 74.0663 61.5124C72.775 61.5136 71.4831 61.533 70.1919 61.5355C69.7469 61.5361 69.3019 61.503 68.8569 61.4968C68.7706 61.4955 68.6425 61.5174 68.6056 61.5749C68.5038 61.7311 68.4363 61.9111 68.3638 62.0849C68.3219 62.1861 68.3631 62.2418 68.4788 62.2568C68.7894 62.2993 69.0994 62.3524 69.4106 62.3986C69.8406 62.463 70.0488 62.6868 70.075 63.1199L70.0806 63.3768C70.0813 64.7236 70.0856 66.0705 70.08 67.4174C70.072 68.7624 70.0593 70.1074 70.0419 71.4524C70.04 71.6218 70.0169 71.7918 69.9925 71.9599C69.9556 72.2136 69.82 72.3886 69.56 72.4436L68.8244 72.5886C68.7375 72.6061 68.6119 72.6036 68.5763 72.6574C68.4413 72.8593 68.3325 73.0799 68.3475 73.3461L68.4231 73.3668L70.8938 73.4274L71.3894 73.4255C72.2444 73.4155 73.1006 73.4324 73.9544 73.3886C74.8788 73.3424 75.7469 73.068 76.5494 72.5961C77.4038 72.093 78.0613 71.4299 78.295 70.4324C78.445 69.7955 78.4456 69.1549 78.1913 68.5399ZM71.9144 62.8018C71.9181 62.5311 72.0375 62.4136 72.3063 62.4068C72.9681 62.3886 73.6256 62.3924 74.2644 62.6205C75.0906 62.9155 75.5988 63.628 75.5894 64.4986C75.585 64.833 75.59 65.1643 75.4669 65.4855C75.2238 66.118 74.7575 66.4518 74.0963 66.5168C73.7513 66.5518 73.4031 66.5555 73.0956 66.5718L72.0694 66.5268C71.9331 66.5218 71.8738 66.4618 71.8744 66.3218L71.9144 62.8018ZM76.1681 71.2355C75.8375 71.9549 75.235 72.333 74.4806 72.4643C73.8794 72.5678 73.263 72.5408 72.6731 72.3849C72.2319 72.2718 72.0519 71.9174 71.9638 71.5243C71.9044 71.2611 71.9144 70.948 71.9094 70.6743C71.9013 70.2518 71.9075 69.3749 71.9075 69.3749H71.8988C71.8988 68.7499 71.9006 68.2086 71.8969 67.6093C71.8963 67.4799 71.9181 67.4155 72.0763 67.4205C72.6375 67.4374 73.2006 67.4468 73.7619 67.4686C74.2638 67.488 74.7338 67.6368 75.1756 67.8749C75.8481 68.2374 76.2531 68.7924 76.3644 69.5549C76.4494 70.133 76.4131 70.7018 76.1681 71.2355ZM14.5513 71.9093L14.5631 68.5111C14.565 67.9999 14.5 67.4986 14.3325 67.0136C13.8706 65.678 12.5969 65.0699 11.2706 65.5493C10.6675 65.7674 10.1269 66.098 9.61064 66.473C9.31001 66.6918 9.31001 66.6918 9.09251 66.3799C8.47689 65.4974 7.59751 65.1955 6.57376 65.5211C5.91189 65.7311 5.33314 66.0905 4.78501 66.508C4.73376 66.5468 4.63064 66.5899 4.60001 66.5668C4.54876 66.5286 4.51314 66.438 4.51439 66.3699L4.55189 65.7661C4.55501 65.6393 4.53064 65.5118 4.51814 65.3786C4.27064 65.4643 4.07314 65.5499 3.86626 65.5999C3.22689 65.7561 2.58314 65.8999 1.94001 66.0468C1.78439 66.0824 1.62001 66.1293 1.60501 66.308C1.58939 66.4836 1.75876 66.513 1.89001 66.5655C2.16626 66.6776 2.44084 66.7941 2.71376 66.9149C2.94314 67.0161 3.02876 67.1993 3.02751 67.4455C3.02314 68.4986 3.03001 69.5505 3.02376 70.6036C3.02126 71.0318 3.00126 71.4593 2.98189 71.8874C2.96439 72.2668 2.83501 72.4255 2.46751 72.5211C2.27251 72.5724 2.07439 72.6068 1.87814 72.653C1.83501 72.663 1.76126 72.6905 1.76064 72.7118C1.75251 72.8974 1.74251 73.0874 1.77376 73.268C1.78001 73.3005 1.97626 73.3005 2.08501 73.313L2.15814 73.3086C2.91564 73.2966 3.67334 73.2861 4.43126 73.2774C4.83314 73.273 5.23439 73.2768 5.67064 73.2768L5.71751 72.6705C5.46751 72.6249 5.24439 72.5905 5.02439 72.5424C4.68126 72.4674 4.53501 72.2855 4.52626 71.9393L4.52001 71.4436C4.51626 70.158 4.51126 68.873 4.51126 67.5874C4.51126 67.4005 4.58876 67.2524 4.75314 67.1405C5.10126 66.9055 5.46876 66.7186 5.87564 66.6143C6.73314 66.3949 7.47689 66.6999 7.80689 67.4293C7.91126 67.6593 7.99314 67.9136 8.01626 68.1636C8.13751 69.4524 8.08501 70.7424 8.01189 72.0311C7.99626 72.3093 7.86564 72.4493 7.59126 72.5174L6.94626 72.6536C6.89439 72.6668 6.81876 72.6318 6.81501 72.6749C6.80064 72.853 6.80876 73.1261 6.80876 73.1261H6.96251L8.92626 73.1905C9.46439 73.1893 10.0031 73.2543 10.5406 73.268C10.6369 73.2699 10.7225 73.2843 10.7281 73.173C10.7338 73.0003 10.7315 72.8274 10.7213 72.6549L10.6188 72.6368L10.0656 72.5124C9.69251 72.4243 9.56376 72.2824 9.56251 71.9049C9.55814 70.9743 9.57064 70.0443 9.56251 69.1143C9.5578 68.5824 9.538 68.0507 9.50314 67.5199C9.49376 67.3786 9.51564 67.2861 9.62814 67.2068C9.95413 66.9683 10.321 66.7914 10.7106 66.6849C11.92 66.3661 12.91 67.0293 12.9725 68.2761C13.0338 69.4786 13.0081 70.6855 12.9988 71.8905C12.9956 72.3099 12.8569 72.4368 12.4438 72.5493L12.3013 72.5861C11.8781 72.6874 11.8819 72.6874 11.9069 73.1368C11.915 73.2774 11.9538 73.3136 12.1038 73.3099C12.9656 73.2905 13.8275 73.2855 14.6894 73.278C15.0419 73.2749 15.3944 73.278 15.7781 73.278L15.8563 72.693C15.5194 72.6036 15.2088 72.5374 14.9088 72.4393C14.6438 72.3493 14.55 72.1893 14.5513 71.9093ZM44.2319 66.7586C44.5869 66.4293 44.5894 65.9943 44.49 65.5111C44.2088 65.8055 43.8938 65.9411 43.5344 65.9668C43.0525 66.0011 42.5794 65.9593 42.1306 65.7674C40.9169 65.2461 39.7219 65.283 38.5306 65.8549C37.5288 66.3349 36.9125 67.083 36.8506 68.2174C36.8113 68.9443 36.9475 69.6324 37.4325 70.2105C37.7231 70.5568 38.0963 70.7811 38.5169 70.9361C38.6981 71.003 38.7119 71.0893 38.56 71.2049C38.4479 71.2896 38.3317 71.3689 38.2119 71.4424C37.958 71.602 37.7026 71.7591 37.4456 71.9136C37.295 72.0049 37.2438 72.1211 37.2931 72.2993C37.4375 72.823 37.8094 73.1255 38.2744 73.3461L38.4438 73.4643L38.2956 73.6124C37.84 73.9818 37.3663 74.3305 36.93 74.7224C36.5638 75.0518 36.4456 75.493 36.5563 75.9799C36.7794 76.9518 37.4238 77.553 38.3381 77.8293C39.9363 78.313 41.4369 78.0355 42.805 77.0886C43.6163 76.5268 44.1981 75.7955 44.375 74.7893C44.5731 73.6586 43.945 72.6774 42.8206 72.4749C42.0769 72.3399 41.3156 72.3011 40.5631 72.2149C40.2119 72.1749 39.8556 72.1511 39.5138 72.0705C39.2231 72.0018 39.0788 71.7649 39.1056 71.5336C39.1325 71.3061 39.3744 71.0943 39.6513 71.0724C40.2088 71.0274 40.755 70.9405 41.2688 70.7055C42.63 70.083 43.2619 68.993 43.1038 67.5255C43.0831 67.328 43.0381 67.133 42.9975 66.903C43.4331 66.9761 43.8788 67.0868 44.2319 66.7586ZM40.1013 73.6443C40.655 73.6605 41.285 73.6949 41.8938 73.873C42.4294 74.0293 42.87 74.303 43 74.9011C43.1569 75.6236 42.8094 76.3424 42.11 76.7286C41.455 77.0899 40.7438 77.1199 40.0225 77.0455C39.405 76.9818 38.8494 76.768 38.4044 76.3118C37.8181 75.7111 37.815 74.8799 38.4019 74.2811C38.9263 73.7461 39.2069 73.6355 40.1013 73.6443ZM41.4869 69.293C41.1644 70.3249 40.2256 70.4674 39.49 70.1374C38.8631 69.8568 38.59 69.3043 38.4469 68.6736C38.3913 68.4311 38.3781 68.1793 38.3456 67.9311C38.3588 67.5755 38.4175 67.2343 38.5706 66.9143C39.04 65.9286 40.1931 65.9874 40.8313 66.4336C41.105 66.6249 41.2956 66.8849 41.415 67.193C41.6806 67.8637 41.706 68.6057 41.4869 69.293ZM35.6306 72.5824C35.4074 72.5482 35.1866 72.4989 34.97 72.4349C34.59 72.3186 34.5438 72.2474 34.5394 71.8455C34.5281 70.7255 34.5206 69.6055 34.5081 68.4861C34.5019 67.9824 34.4419 67.4855 34.2875 67.0043C33.8813 65.7355 32.6369 65.0543 31.3919 65.4286C30.7019 65.6368 30.1094 66.0236 29.5575 66.478L29.3563 66.6324L29.3569 66.4255C29.37 66.1874 29.3956 65.9493 29.3938 65.7111C29.3925 65.5868 29.345 65.4618 29.3219 65.3524C28.8513 65.4943 28.4294 65.6368 27.9988 65.7455C27.5669 65.8543 27.1263 65.928 26.6894 66.0168C26.4725 66.0605 26.3131 66.1918 26.3169 66.3411C26.3225 66.5518 26.4969 66.5924 26.6494 66.6555C26.9256 66.7686 27.2013 66.883 27.4744 67.0043C27.6694 67.0911 27.7488 67.2524 27.7469 67.4618C27.7331 68.9174 27.7244 70.3736 27.7031 71.8299C27.6969 72.2899 27.5806 72.4111 27.1281 72.5124L26.9306 72.5518C26.5119 72.6236 26.5 72.6405 26.5288 73.0824L26.5313 73.1555C26.5263 73.3255 26.6006 73.3805 26.7756 73.3786C27.8881 73.3649 29.0008 73.3599 30.1138 73.3636C30.5906 73.3655 30.6419 73.328 30.6319 72.838L30.6094 72.6274C30.3369 72.5818 30.0763 72.5486 29.8213 72.4924C29.5544 72.433 29.4588 72.3236 29.4338 72.0524C29.4106 71.8043 29.4031 71.5524 29.4006 71.3024C29.3881 70.1578 29.3788 69.0136 29.3725 67.8699C29.3713 67.5818 29.4244 67.3143 29.6894 67.1286C30.0794 66.8499 30.5392 66.685 31.0175 66.6524C32.01 66.5843 32.7644 67.1724 32.8181 68.1618C32.8844 69.3824 32.8644 70.6074 32.88 71.8305C32.8813 71.9218 32.865 72.0136 32.8525 72.1043C32.8288 72.283 32.7413 72.4174 32.56 72.4636C32.3831 72.5099 32.2038 72.5511 32.0231 72.5786C31.7538 72.6186 31.7481 72.6168 31.7275 72.8886L31.7344 73.0718C31.7663 73.388 31.7669 73.3786 32.0869 73.3755C33.1631 73.3664 34.239 73.362 35.3144 73.3624C35.7644 73.3636 35.7963 73.3424 35.8 72.8786L35.7988 72.7686C35.8056 72.6499 35.7525 72.6018 35.6306 72.5824ZM50.6631 65.5055C49.535 65.2299 48.465 65.4349 47.4488 65.9605C46.4613 66.4711 45.8013 67.2605 45.55 68.3505C45.2963 69.4524 45.4175 70.5274 45.9044 71.5505C46.2213 72.2149 46.7088 72.7286 47.3725 73.0624C48.9263 73.8449 50.8269 73.4899 52.0456 72.443C53.0075 71.6174 53.3606 70.518 53.3819 69.1574C53.3688 69.0211 53.3556 68.7586 53.3194 68.4986C53.115 67.0174 52.0894 65.8543 50.6631 65.5055ZM51.5175 71.2274C51.2181 72.4061 50.1988 72.9299 49.0488 72.5249C48.4619 72.3186 48.0231 71.9243 47.7281 71.3911C47.0494 70.1661 46.9188 68.8636 47.305 67.5274C47.5625 66.6374 48.295 66.1505 49.1663 66.2118C49.945 66.2661 50.5438 66.6399 50.9831 67.2736C51.4463 67.9424 51.625 68.703 51.6725 69.5018C51.6806 69.6299 51.6738 69.758 51.6738 69.8868L51.7288 69.893C51.66 70.3386 51.6275 70.793 51.5175 71.2274ZM22.29 65.4861C21.1031 65.2149 19.9913 65.483 18.9613 66.0861C18.0706 66.6074 17.495 67.3861 17.2744 68.4036C17.0675 69.3543 17.1519 70.2886 17.4888 71.1993C17.6938 71.7543 18.0044 72.2424 18.46 72.623C19.4194 73.4236 20.5406 73.6261 21.7338 73.403C22.7438 73.2136 23.6313 72.7649 24.2763 71.9255C24.88 71.1405 25.11 70.2393 25.1338 69.2624C25.0981 68.953 25.0894 68.638 25.0238 68.3361C24.6975 66.8293 23.8163 65.8343 22.29 65.4861ZM23.2581 71.2236C22.9688 72.3961 21.9331 72.933 20.7913 72.528C20.0581 72.2674 19.5806 71.7305 19.2788 71.0424C18.795 69.9368 18.6963 68.7861 19.0094 67.6199C19.2494 66.728 19.9725 66.0711 21.0794 66.2286C21.7588 66.3249 22.2888 66.6718 22.6838 67.2236C23.2175 67.968 23.3931 68.8205 23.4175 69.7161V69.8993L23.4625 69.9061C23.3969 70.3461 23.3644 70.7936 23.2581 71.2236Z" fill="white"/>
</svg>
