<svg width="80" height="80" viewBox="0 0 80 80" fill="none" xmlns="http://www.w3.org/2000/svg">
<g clip-path="url(#clip0_17_12)">
<path d="M40 80C62.0914 80 80 62.0914 80 40C80 17.9086 62.0914 0 40 0C17.9086 0 0 17.9086 0 40C0 62.0914 17.9086 80 40 80Z" fill="#333333"/>
<path d="M66.4481 70.0088L30.7294 24H24V55.9869H29.3837V30.8369L62.2212 73.2644C63.7011 72.2744 65.1132 71.1868 66.4481 70.0088Z" fill="url(#paint0_linear_17_12)"/>
<path d="M51.1112 24H56.4443V56H51.1112V24Z" fill="url(#paint1_linear_17_12)"/>
</g>
<defs>
<linearGradient id="paint0_linear_17_12" x1="48.4444" y1="51.7777" x2="64.2221" y2="71.3332" gradientUnits="userSpaceOnUse">
<stop stop-color="white"/>
<stop offset="1" stop-color="white" stop-opacity="0"/>
</linearGradient>
<linearGradient id="paint1_linear_17_12" x1="53.7776" y1="24" x2="53.6883" y2="47.4999" gradientUnits="userSpaceOnUse">
<stop stop-color="white"/>
<stop offset="1" stop-color="white" stop-opacity="0"/>
</linearGradient>
<clipPath id="clip0_17_12">
<rect width="80" height="80" fill="white"/>
</clipPath>
</defs>
</svg>
