<svg width="80" height="80" viewBox="0 0 80 80" fill="none" xmlns="http://www.w3.org/2000/svg">
<path d="M40 6.16675C39.1 6.16675 38.1667 6.40008 37.4 6.83341L12.6 21.1667C11 22.1001 10 23.8334 10 25.7001V54.3001C10 56.1667 11 57.9001 12.6 58.8334L19.1 62.5667C22.2667 64.1001 23.3333 64.1334 24.8 64.1334C29.4667 64.1334 32.1667 61.3001 32.1667 56.3667V28.1334C32.1667 27.7334 31.8333 27.4001 31.4333 27.4001H28.3333C27.9 27.4001 27.5667 27.7334 27.5667 28.1334V56.3667C27.5667 58.5667 25.3 60.7334 21.6667 58.9001L14.8333 55.0001C14.7211 54.9208 14.6293 54.816 14.5656 54.6943C14.5018 54.5726 14.4679 54.4375 14.4667 54.3001V25.7001C14.4667 25.4001 14.6 25.1334 14.8333 25.0001L39.6333 10.7001C39.8333 10.5667 40.1667 10.5667 40.3667 10.7001L65.1667 25.0001C65.4 25.1334 65.5333 25.4001 65.5333 25.7001V54.3001C65.5333 54.5667 65.4 54.8334 65.1667 55.0001L40.3667 69.3001C40.1667 69.4334 39.8333 69.4334 39.6 69.3001L33.3333 65.5001C33.0667 65.4001 32.8 65.3667 32.6333 65.4667C30.8667 66.4667 30.5333 66.6667 28.9 67.1667C28.5 67.3001 27.8667 67.5334 29.1333 68.2334L37.4 73.1334C38.2 73.6001 39.0667 73.8334 40 73.8334C40.9333 73.8334 41.8 73.6001 42.6 73.1334L67.4 58.8334C69 57.9001 70 56.1667 70 54.3001V25.7001C70 23.8334 69 22.1001 67.4 21.1667L42.6 6.83341C41.8333 6.40008 40.9333 6.16675 40 6.16675ZM46.6667 26.6667C39.6 26.6667 35.3667 29.6334 35.3667 34.6334C35.3667 40.0001 39.5667 41.5667 46.3667 42.2334C54.4667 43.0334 55.1 44.2334 55.1 45.8334C55.1 48.6001 52.8667 49.7667 47.6667 49.7667C41.0667 49.7667 39.6667 48.1334 39.1667 44.8667C39.1316 44.6979 39.0396 44.5462 38.9061 44.437C38.7727 44.3278 38.6058 44.2677 38.4333 44.2667H35.2333C34.8333 44.2667 34.5333 44.5667 34.5333 45.0001C34.5333 49.1334 36.8 54.1334 47.6667 54.1334C55.5 54.1334 60 51.0334 60 45.6334C60 40.2667 56.4 38.8667 48.7667 37.8334C41.0667 36.8334 40.3 36.3001 40.3 34.5001C40.3 33.0001 40.9667 31.0001 46.6667 31.0001C51.6667 31.0001 53.6333 32.1001 54.4 35.5334C54.4667 35.8667 54.7667 36.1001 55.1 36.1001H58.3333C58.5 36.1001 58.7 36.0334 58.8333 35.8667C58.9667 35.7334 59.0667 35.5334 59 35.3334C58.5333 29.4001 54.6 26.6667 46.6667 26.6667Z" fill="#333333"/>
</svg>
