<svg width="80" height="80" viewBox="0 0 80 80" fill="none" xmlns="http://www.w3.org/2000/svg">
<path d="M34.8333 34.9333C34.8837 35.9454 34.5779 36.9432 33.9689 37.7531C33.3599 38.5631 32.4863 39.134 31.5 39.3666C29.7599 39.8805 27.9452 40.0946 26.1333 40C25.6666 40 25.6333 39.7 25.6333 39.3666V30.8666C25.6333 30.6333 25.8666 30.2333 26 30.2333C27.9068 30.0198 29.8363 30.1439 31.7 30.6C32.6379 30.857 33.4599 31.4268 34.0297 32.2149C34.5996 33.0029 34.8831 33.962 34.8333 34.9333Z" fill="white"/>
<path d="M56.6666 6.66675H23.3333C18.913 6.66675 14.6738 8.4227 11.5482 11.5483C8.42257 14.6739 6.66663 18.9131 6.66663 23.3334V56.6667C6.66663 61.087 8.42257 65.3263 11.5482 68.4519C14.6738 71.5775 18.913 73.3334 23.3333 73.3334H56.6666C61.0869 73.3334 65.3261 71.5775 68.4517 68.4519C71.5773 65.3263 73.3333 61.087 73.3333 56.6667V23.3334C73.3333 18.9131 71.5773 14.6739 68.4517 11.5483C65.3261 8.4227 61.0869 6.66675 56.6666 6.66675ZM36.6666 43.3334C34.9843 44.4019 33.0564 45.0216 31.0666 45.1334H26.6C25.6666 45.1334 25.6666 45.1334 25.6666 46.0334V53.7667C25.6666 54.4334 25.4666 54.6334 24.8 54.6334H20.4C19.7666 54.6334 19.6 54.4001 19.6 53.8001V25.7001C19.6 25.0334 19.6 24.8334 20.4333 24.8334H30.8666C32.771 24.885 34.6303 25.4244 36.2666 26.4001C37.6798 27.1964 38.8563 28.3534 39.6762 29.753C40.4961 31.1526 40.9299 32.7447 40.9333 34.3667C41.1261 36.1102 40.829 37.873 40.0753 39.4569C39.3216 41.0409 38.1412 42.3833 36.6666 43.3334ZM56.4 54.3334C53.5011 55.4628 50.3273 55.6837 47.3 54.9667C46.3911 54.7667 45.5022 54.5001 44.6333 54.1667C44.4993 54.1039 44.3815 54.0111 44.289 53.8955C44.1966 53.7799 44.1319 53.6446 44.1 53.5001V48.4667C45.1666 48.8667 46.1666 49.3334 47.2 49.6667C48.9317 50.2202 50.7653 50.3797 52.5666 50.1334C52.9266 50.0667 53.2711 49.9556 53.6 49.8001C53.7953 49.7145 53.9651 49.5798 54.0929 49.409C54.2206 49.2382 54.3019 49.0373 54.3287 48.8257C54.3556 48.6141 54.3271 48.3992 54.2461 48.2019C54.1652 48.0047 54.0344 47.8317 53.8666 47.7001C53.1041 47.1722 52.2886 46.7254 51.4333 46.3667C50.0666 45.7001 48.6666 45.1667 47.3666 44.4001C46.1929 43.829 45.2346 42.8947 44.6341 41.7357C44.0336 40.5767 43.8229 39.255 44.0333 37.9667C44.2028 36.7269 44.7179 35.5598 45.5196 34.599C46.3213 33.6381 47.3772 32.9223 48.5666 32.5334C50.7104 31.8085 52.9979 31.614 55.2333 31.9667C56.3 31.9667 57.3333 32.3667 58.4 32.5667C58.9666 32.5667 59.1666 33.0334 59.1333 33.6001V37.5001C59.1333 38.2334 58.9666 38.3001 58.3 38.0334C56.2181 37.0695 53.9168 36.6783 51.6333 36.9001C51.3098 36.9377 50.9945 37.0278 50.7 37.1667C50.5 37.2453 50.324 37.3747 50.1894 37.5421C50.0548 37.7095 49.9663 37.9092 49.9326 38.1214C49.899 38.3336 49.9213 38.5509 49.9974 38.7518C50.0735 38.9526 50.2008 39.1302 50.3666 39.2667C51.3311 39.909 52.3422 40.4645 53.4 40.9334C54.6666 41.5667 56 42.0667 57.2333 42.7667C58.3524 43.276 59.2795 44.1296 59.8791 45.203C60.4788 46.2765 60.7197 47.5134 60.5666 48.7334C60.4613 49.9504 60.0098 51.1119 59.2656 52.0806C58.5213 53.0493 57.5154 53.7847 56.3666 54.2001L56.4 54.3334Z" fill="white"/>
</svg>
