<svg width="80" height="80" viewBox="0 0 80 80" fill="none" xmlns="http://www.w3.org/2000/svg">
<g clip-path="url(#clip0_17_38)">
<mask id="mask0_17_38" style="mask-type:luminance" maskUnits="userSpaceOnUse" x="0" y="0" width="80" height="80">
<path d="M0 0H80V80H0V0Z" fill="white"/>
</mask>
<g mask="url(#mask0_17_38)">
<path d="M39.7133 0C19.4 0 20.6667 8.85333 20.6667 8.85333L20.69 18.0267H40.07V20.78H13C13 20.78 0 19.2967 0 39.8967C0 60.4967 11.3433 59.7633 11.3433 59.7633H18.11V50.2067C18.11 50.2067 17.7467 38.8067 29.2767 38.8067H48.4967C48.4967 38.8067 59.2967 38.98 59.2967 28.3133V10.6733C59.2967 10.6733 60.9367 0 39.7133 0ZM29.0267 6.16667C30.9533 6.16667 32.5133 7.73333 32.5133 9.67333C32.5133 11.61 30.9533 13.1767 29.0267 13.1767C27.1 13.1767 25.54 11.61 25.54 9.67333C25.54 7.73333 27.0967 6.16667 29.0267 6.16667Z" fill="#333333"/>
<path d="M40.29 80C60.5966 80 59.33 71.1466 59.33 71.1466L59.3066 61.9733H39.9266V59.22H67.0033C67.0033 59.22 80.0033 60.7033 80.0033 40.1033C80.0033 19.5033 68.6566 20.2366 68.6566 20.2366H61.89V29.7933C61.89 29.7933 62.2533 41.1933 50.7233 41.1933H31.5066C31.5066 41.1933 20.7066 41.02 20.7066 51.6866V69.3266C20.7066 69.3266 19.0666 80 40.29 80ZM50.9766 73.8333C49.0466 73.8333 47.49 72.2666 47.49 70.3266C47.49 68.39 49.0466 66.8233 50.9766 66.8233C52.9033 66.8233 54.4633 68.39 54.4633 70.3266C54.4633 72.2666 52.9033 73.8333 50.9766 73.8333Z" fill="#333333"/>
</g>
</g>
<defs>
<clipPath id="clip0_17_38">
<rect width="80" height="80" fill="white"/>
</clipPath>
</defs>
</svg>
