<svg width="80" height="80" viewBox="0 0 80 80" fill="none" xmlns="http://www.w3.org/2000/svg">
<path d="M40 33.6999C43.4333 33.6999 46.2333 36.4999 46.2333 39.9999C46.2333 43.3332 43.4333 46.1666 40 46.1666C36.5666 46.1666 33.7666 43.3332 33.7666 39.9999C33.7666 36.4999 36.5666 33.6999 40 33.6999ZM24.5666 66.6666C26.6666 67.9332 31.2666 65.9999 36.5666 60.9999C34.8333 59.0332 33.1333 56.8999 31.5333 54.6666C28.8474 54.4076 26.177 54.0071 23.5333 53.4666C21.8333 60.5999 22.4666 65.4999 24.5666 66.6666ZM26.9333 47.5332L25.9666 45.8332C25.6 46.7999 25.2333 47.7666 25 48.6999C25.9 48.8999 26.9 49.0666 27.9333 49.2332L26.9333 47.5332ZM48.7333 44.9999L51.4333 39.9999L48.7333 34.9999C47.7333 33.2332 46.6666 31.6666 45.7 30.0999C43.9 29.9999 42 29.9999 40 29.9999C38 29.9999 36.1 29.9999 34.3 30.0999C33.3333 31.6666 32.2666 33.2332 31.2666 34.9999L28.5666 39.9999L31.2666 44.9999C32.2666 46.7666 33.3333 48.3332 34.3 49.8999C36.1 49.9999 38 49.9999 40 49.9999C42 49.9999 43.9 49.9999 45.7 49.8999C46.6666 48.3332 47.7333 46.7666 48.7333 44.9999ZM40 22.5999C39.3666 23.3332 38.7 24.0999 38.0333 24.9999H41.9666C41.3 24.0999 40.6333 23.3332 40 22.5999ZM40 57.3999C40.6333 56.6666 41.3 55.8999 41.9666 54.9999H38.0333C38.7 55.8999 39.3666 56.6666 40 57.3999ZM55.4 13.3332C53.3333 12.0666 48.7333 13.9999 43.4333 18.9999C45.1666 20.9666 46.8666 23.0999 48.4666 25.3332C51.2 25.5999 53.9 25.9999 56.4666 26.5332C58.1666 19.3999 57.5333 14.4999 55.4 13.3332ZM53.0666 32.4666L54.0333 34.1666C54.4 33.1999 54.7666 32.2332 55 31.2999C54.1 31.0999 53.1 30.9332 52.0666 30.7666L53.0666 32.4666ZM57.9 8.96656C62.8 11.7666 63.3333 19.1332 61.2666 27.7332C69.7333 30.2332 75.8333 34.3666 75.8333 39.9999C75.8333 45.6332 69.7333 49.7666 61.2666 52.2666C63.3333 60.8666 62.8 68.2332 57.9 71.0332C53.0333 73.8332 46.4 70.6332 40 64.5332C33.6 70.6332 26.9666 73.8332 22.0666 71.0332C17.2 68.2332 16.6666 60.8666 18.7333 52.2666C10.2666 49.7666 4.16663 45.6332 4.16663 39.9999C4.16663 34.3666 10.2666 30.2332 18.7333 27.7332C16.6666 19.1332 17.2 11.7666 22.0666 8.96656C26.9666 6.16656 33.6 9.36656 40 15.4666C46.4 9.36656 53.0333 6.16656 57.9 8.96656ZM56.9333 39.9999C58.0666 42.4999 59.0666 44.9999 59.9 47.5332C66.9 45.4332 70.8333 42.4332 70.8333 39.9999C70.8333 37.5666 66.9 34.5666 59.9 32.4666C59.0666 34.9999 58.0666 37.4999 56.9333 39.9999ZM23.0666 39.9999C21.9333 37.4999 20.9333 34.9999 20.1 32.4666C13.1 34.5666 9.16663 37.5666 9.16663 39.9999C9.16663 42.4332 13.1 45.4332 20.1 47.5332C20.9333 44.9999 21.9333 42.4999 23.0666 39.9999ZM53.0666 47.5332L52.0666 49.2332C53.1 49.0666 54.1 48.8999 55 48.6999C54.7666 47.7666 54.4 46.7999 54.0333 45.8332L53.0666 47.5332ZM43.4333 60.9999C48.7333 65.9999 53.3333 67.9332 55.4 66.6666C57.5333 65.4999 58.1666 60.5999 56.4666 53.4666C53.9 53.9999 51.2 54.3999 48.4666 54.6666C46.8666 56.8999 45.1666 59.0332 43.4333 60.9999ZM26.9333 32.4666L27.9333 30.7666C26.9 30.9332 25.9 31.0999 25 31.2999C25.2333 32.2332 25.6 33.1999 25.9666 34.1666L26.9333 32.4666ZM36.5666 18.9999C31.2666 13.9999 26.6666 12.0666 24.5666 13.3332C22.4666 14.4999 21.8333 19.3999 23.5333 26.5332C26.177 25.9927 28.8474 25.5922 31.5333 25.3332C33.1333 23.0999 34.8333 20.9666 36.5666 18.9999Z" fill="#333333"/>
</svg>
