<svg width="71" height="70" viewBox="0 0 71 70" fill="none" xmlns="http://www.w3.org/2000/svg">
<path d="M41.1864 65.6875C43.2964 65.6875 44.7902 63.8725 45.8739 61.06L65.0639 10.9325C65.5914 9.585 65.9139 8.38375 65.9139 7.3875C65.9139 5.48375 64.7127 4.3125 62.8077 4.3125C61.8114 4.3125 60.6102 4.605 59.2627 5.1325L8.87266 24.4375C6.41016 25.375 4.50641 26.8687 4.50641 29.0075C4.50641 31.7025 6.55766 32.6112 9.37016 33.4612L25.2202 38.265C27.0652 38.8525 28.1202 38.7925 29.3802 37.6213L61.5177 7.59125C61.8989 7.24 62.3389 7.29875 62.6327 7.5625C62.9252 7.855 62.9539 8.295 62.6027 8.675L32.6902 40.9312C31.5777 42.1325 31.4602 43.1287 32.0464 45.0913L36.6752 60.56C37.5539 63.5188 38.4627 65.6875 41.1877 65.6875" fill="#232ad1"/>
</svg>
