<svg width="80" height="80" viewBox="0 0 80 80" fill="none" xmlns="http://www.w3.org/2000/svg">
<g opacity="0.8">
<path fill-rule="evenodd" clip-rule="evenodd" d="M23.3333 33.2301C25.5555 24.2012 31.1111 19.6868 40 19.6868C53.3333 19.6868 55 29.8434 61.6666 31.5368C66.1111 32.6657 70 30.9723 73.3333 26.4568C71.1111 35.4857 65.5555 40.0001 56.6666 40.0001C43.3333 40.0001 41.6666 29.8434 35 28.1501C30.5555 27.0234 26.6666 28.7179 23.3333 33.2334M6.66663 53.5468C8.88885 44.5157 14.4444 40.0001 23.3333 40.0001C36.6666 40.0001 38.3333 50.1568 45 51.8501C49.4444 52.9768 53.3333 51.2834 56.6666 46.7701C54.4444 55.799 48.8888 60.3134 40 60.3134C26.6666 60.3134 25 50.1568 18.3333 48.4634C13.8888 47.3345 9.99996 49.0312 6.66663 53.5468Z" fill="white"/>
</g>
</svg>
