<svg width="80" height="80" viewBox="0 0 80 80" fill="none" xmlns="http://www.w3.org/2000/svg">
<path d="M14.415 4.27813C14.3253 4.28143 14.2374 4.30471 14.1578 4.34626C14.0783 4.38781 14.0089 4.44659 13.9549 4.51832C13.9009 4.59005 13.8636 4.67292 13.8457 4.76089C13.8277 4.84887 13.8296 4.93974 13.8513 5.02688L26.8963 57.8269C26.9218 57.9296 26.9739 58.0237 27.0473 58.1C27.1207 58.1762 27.2129 58.2318 27.3146 58.2611C27.4162 58.2905 27.5238 58.2926 27.6266 58.2673C27.7293 58.242 27.8236 58.1901 27.9 58.1169L67.1394 20.3675C67.2157 20.2941 67.2714 20.2018 67.3008 20.1C67.3302 19.9983 67.3323 19.8905 67.3069 19.7877C67.2816 19.6848 67.2295 19.5905 67.1561 19.5141C67.0827 19.4377 66.9905 19.382 66.8888 19.3525L14.6038 4.30125C14.5424 4.28396 14.4787 4.27616 14.415 4.27813ZM15.2738 5.75L65.5488 20.2231L27.8175 56.5213L15.2738 5.75Z" fill="#333333"/>
<path d="M40.5625 11.8038C40.4099 11.8066 40.2639 11.8668 40.1538 11.9725L20.5432 30.8507C20.4668 30.9242 20.4112 31.0165 20.3818 31.1183C20.3524 31.2201 20.3504 31.3278 20.3758 31.4307C20.4013 31.5336 20.4534 31.6279 20.5269 31.7043C20.6003 31.7806 20.6926 31.8363 20.7944 31.8657L46.9213 39.3957C47.0231 39.425 47.1308 39.427 47.2336 39.4015C47.3364 39.376 47.4307 39.3239 47.507 39.2504C47.5833 39.177 47.639 39.0847 47.6683 38.983C47.6977 38.8812 47.6998 38.7735 47.6744 38.6707L41.1582 12.2625C41.1254 12.1299 41.0485 12.0123 40.9402 11.929C40.8319 11.8456 40.6992 11.8015 40.5625 11.8038ZM40.2375 13.5675L46.2519 37.9469L22.1338 30.995L40.2375 13.5675Z" fill="#333333"/>
<path d="M30.8294 21.1468C30.7399 21.1503 30.6523 21.1737 30.573 21.2153C30.4937 21.2568 30.4246 21.3155 30.3707 21.3871C30.3169 21.4586 30.2796 21.5412 30.2617 21.629C30.2437 21.7167 30.2455 21.8073 30.2669 21.8943L33.5019 35.0118C33.5272 35.1148 33.5792 35.2093 33.6527 35.2858C33.7262 35.3622 33.8185 35.418 33.9204 35.4475C34.0223 35.4769 34.1301 35.479 34.2331 35.4536C34.336 35.4281 34.4305 35.376 34.5069 35.3024L44.2487 25.9143C44.3251 25.8408 44.3807 25.7484 44.41 25.6466C44.4394 25.5447 44.4414 25.4369 44.4158 25.3341C44.3903 25.2312 44.3382 25.1369 44.2646 25.0606C44.1911 24.9842 44.0987 24.9286 43.9969 24.8993L31.0187 21.1699C30.9572 21.1526 30.8933 21.1448 30.8294 21.1468ZM31.6881 22.618L42.6581 25.7699L34.4231 33.7062L31.6881 22.618Z" fill="#333333"/>
<path d="M27.6025 8.04321C27.4496 8.04584 27.3034 8.10611 27.1931 8.21196L17.4513 17.6051C17.3749 17.6786 17.3193 17.7709 17.2899 17.8727C17.2605 17.9745 17.2585 18.0822 17.2839 18.1851C17.3094 18.288 17.3615 18.3823 17.4349 18.4587C17.5084 18.535 17.6007 18.5907 17.7025 18.6201L30.6813 22.3495C30.783 22.3788 30.8907 22.3808 30.9936 22.3553C31.0964 22.3298 31.1907 22.2777 31.267 22.2042C31.3433 22.1308 31.3989 22.0385 31.4283 21.9368C31.4577 21.835 31.4598 21.7273 31.4344 21.6245L28.1988 8.50321C28.1661 8.37044 28.0893 8.25269 27.981 8.16924C27.8727 8.08579 27.7392 8.04095 27.6025 8.04321ZM27.2763 9.80884L30.0119 20.9007L19.0406 17.7482L27.2763 9.80884ZM53.5625 15.5238C53.4101 15.5268 53.2644 15.587 53.1544 15.6926L43.4106 25.0813C43.3346 25.155 43.2793 25.2473 43.2503 25.3491C43.2212 25.4509 43.2194 25.5585 43.245 25.6612C43.2707 25.7638 43.3228 25.858 43.3963 25.9341C43.4698 26.0103 43.562 26.0658 43.6638 26.0951L56.6413 29.8245C56.743 29.8538 56.8507 29.8558 56.9536 29.8303C57.0564 29.8048 57.1507 29.7527 57.227 29.6792C57.3033 29.6058 57.3589 29.5135 57.3883 29.4118C57.4177 29.31 57.4198 29.2023 57.3944 29.0995L54.1588 15.9826C54.126 15.8499 54.0491 15.7323 53.9408 15.649C53.8325 15.5657 53.6991 15.5215 53.5625 15.5238ZM53.2375 17.2888L55.9731 28.3763L45.0025 25.2238L53.2375 17.2888ZM34.0775 34.2776C33.9251 34.2805 33.7794 34.3408 33.6694 34.4463L23.9256 43.8338C23.8493 43.9075 23.7937 43.9999 23.7645 44.1018C23.7352 44.2037 23.7333 44.3116 23.759 44.4145C23.7846 44.5173 23.8369 44.6117 23.9106 44.6879C23.9843 44.7642 24.0768 44.8197 24.1788 44.8488L37.1613 48.5782C37.263 48.6074 37.3706 48.6093 37.4733 48.5837C37.5761 48.5582 37.6702 48.506 37.7465 48.4326C37.8227 48.3592 37.8783 48.267 37.9076 48.1653C37.937 48.0636 37.9391 47.956 37.9138 47.8532L34.6738 34.7363C34.641 34.6037 34.5641 34.4861 34.4558 34.4027C34.3475 34.3194 34.2141 34.2753 34.0775 34.2776ZM33.7525 36.042L36.4913 47.1295L25.5175 43.9782L33.7525 36.042Z" fill="#333333"/>
<path d="M16.2225 71.6875C15.94 72.3381 15.4063 72.6212 14.8988 72.6212C14.2569 72.6212 13.6556 72.1544 13.6556 71.2162V67.8912H16.3531V67.0344H13.6556V64.6962L12.7044 64.6287V67.0344H11.6769V67.8912H12.7044V71.2162C12.7044 72.7019 13.7856 73.5587 14.9125 73.5587C15.7375 73.5587 16.595 73.115 17.075 72.0737L16.2225 71.6875ZM24.1975 72.6481V70.0812C24.1975 68.4925 23.5331 66.8594 21.8863 66.8594C21.0963 66.8594 20.2706 67.2225 19.9613 67.7837V64.6962L19.0138 64.6287V73.3837H19.9606V68.7975C20.2438 68.2369 20.6431 67.81 21.4194 67.81C22.5413 67.81 23.1831 68.7169 23.1831 69.8387V73.3837H24.2644C24.1969 73.155 24.1975 72.89 24.1975 72.6481ZM31.5206 68.075L32.1081 67.155C31.3906 66.8725 31.1481 66.8594 30.9063 66.8594C30.4125 66.8594 29.4119 66.94 28.9675 67.7837C28.9675 67.6356 29.0613 67.155 29.1425 67.0337H26.8044V67.7431L28.1013 67.8106V72.6075H26.1356V73.3837H30.9731C30.9063 73.155 30.9063 72.89 30.9063 72.6481V72.6075H29.0213V68.9594C29.2369 68.0081 30.4388 67.4875 31.5206 68.075ZM36.3313 66.8594C34.5138 66.8594 33.5625 68.0481 33.5131 70.0944V70.6694C33.5131 72.3519 34.7156 73.5587 36.385 73.5587C36.8405 73.5577 37.2908 73.4617 37.7073 73.2771C38.1237 73.0924 38.4971 72.8231 38.8038 72.4862L38.2431 71.7912C37.5206 72.4862 36.9194 72.6887 36.3581 72.6887C35.2363 72.6887 34.4469 71.8581 34.4469 70.6687L38.9794 70.6419L38.9925 70.0944C39.0738 68.035 38.1356 66.8594 36.3313 66.8594ZM37.9919 69.8119H34.4606C34.5138 68.5056 35.0075 67.6894 36.2369 67.6894C37.4663 67.6894 38.0544 68.4519 37.9919 69.8119ZM43.6819 66.8594C41.8644 66.8594 40.9131 68.0481 40.8594 70.0944V70.6694C40.8594 72.3519 42.0619 73.5587 43.7356 73.5587C44.191 73.5569 44.6411 73.4606 45.0574 73.276C45.4738 73.0914 45.8473 72.8225 46.1544 72.4862L45.5938 71.7912C44.8713 72.4862 44.27 72.6887 43.7088 72.6887C42.5869 72.6887 41.7975 71.8581 41.7975 70.6687L46.33 70.6419L46.3431 70.0944C46.4244 68.035 45.4863 66.8594 43.6819 66.8594ZM45.3381 69.8119H41.8106C41.8644 68.5056 42.3581 67.6894 43.5875 67.6894C44.8169 67.6894 45.4056 68.4519 45.3381 69.8119ZM50.2831 72.85C50.2831 73.3031 50.5394 73.5587 50.9925 73.5587C51.4319 73.5587 51.6881 73.3031 51.6881 72.85C51.6881 72.4062 51.4319 72.1544 50.9925 72.1544C50.5531 72.1544 50.2831 72.4056 50.2831 72.85ZM59.4644 65.9125C59.9044 65.9125 60.1606 65.67 60.1606 65.2031C60.1606 64.7594 59.9044 64.5212 59.465 64.5212C59.0256 64.5212 58.7694 64.7587 58.7694 65.2031C58.7694 65.67 59.0106 65.9125 59.4644 65.9125ZM57.7688 67.0344V67.7431L59.0788 67.8106V73.3837C59.0788 74.3306 58.4775 74.7887 57.8356 74.7887C57.3106 74.7887 56.7769 74.5056 56.4981 73.8637L55.6544 74.2369C56.135 75.2956 56.9919 75.7219 57.8225 75.7219C58.9444 75.7219 60.0256 74.8781 60.0256 73.3844L60.0394 67.0344H57.7688ZM66.0663 69.7494C64.85 69.52 64.2888 69.2244 64.2888 68.7169C64.2888 68.1425 64.9844 67.7294 65.9581 67.7294C66.6538 67.7294 67.1206 67.9406 67.6413 68.4925L68.2425 67.8912C67.7756 67.2225 66.9231 66.8594 65.8506 66.8594C64.3831 66.8594 63.3913 67.6087 63.3913 68.7437C63.3913 69.7356 64.1538 70.31 65.985 70.6825C67.0938 70.8981 67.43 71.095 67.43 71.5262C67.43 72.1544 66.6675 72.7019 65.7969 72.7019C65.0519 72.7019 64.3831 72.2894 63.7681 71.5669L63.1269 72.2219C63.7819 73.0881 64.6481 73.5594 65.7831 73.5594C67.3225 73.5594 68.3231 72.7019 68.3231 71.5125C68.3231 70.5481 67.6681 70.0544 66.0663 69.7494Z" fill="#333333"/>
</svg>
