<svg width="50" height="50" viewBox="0 0 50 50" fill="white" xmlns="http://www.w3.org/2000/svg">
<path d="M34.0833 29.1667C34.25 27.7917 34.375 26.4167 34.375 25.0001C34.375 23.5834 34.25 22.2084 34.0833 20.8334H41.125C41.4583 22.1667 41.6667 23.5626 41.6667 25.0001C41.6667 26.4376 41.4583 27.8334 41.125 29.1667M30.3958 40.7501C31.6458 38.4376 32.6042 35.9376 33.2708 33.3334H39.4167C37.3983 36.809 34.1961 39.4417 30.3958 40.7501ZM29.875 29.1667H20.125C19.9167 27.7917 19.7917 26.4167 19.7917 25.0001C19.7917 23.5834 19.9167 22.1876 20.125 20.8334H29.875C30.0625 22.1876 30.2083 23.5834 30.2083 25.0001C30.2083 26.4167 30.0625 27.7917 29.875 29.1667ZM25 41.5834C23.2708 39.0834 21.875 36.3126 21.0208 33.3334H28.9792C28.125 36.3126 26.7292 39.0834 25 41.5834ZM16.6667 16.6667H10.5833C12.5805 13.1814 15.7805 10.5443 19.5833 9.25008C18.3333 11.5626 17.3958 14.0626 16.6667 16.6667ZM10.5833 33.3334H16.6667C17.3958 35.9376 18.3333 38.4376 19.5833 40.7501C15.788 39.4424 12.5923 36.8088 10.5833 33.3334ZM8.87499 29.1667C8.54166 27.8334 8.33332 26.4376 8.33332 25.0001C8.33332 23.5626 8.54166 22.1667 8.87499 20.8334H15.9167C15.75 22.2084 15.625 23.5834 15.625 25.0001C15.625 26.4167 15.75 27.7917 15.9167 29.1667M25 8.39592C26.7292 10.8959 28.125 13.6876 28.9792 16.6667H21.0208C21.875 13.6876 23.2708 10.8959 25 8.39592ZM39.4167 16.6667H33.2708C32.6178 14.0868 31.6523 11.5961 30.3958 9.25008C34.2292 10.5626 37.4167 13.2084 39.4167 16.6667ZM25 4.16675C13.4792 4.16675 4.16666 13.5417 4.16666 25.0001C4.16666 30.5254 6.36159 35.8245 10.2686 39.7315C12.2032 41.666 14.4998 43.2006 17.0274 44.2476C19.555 45.2945 22.2641 45.8334 25 45.8334C30.5253 45.8334 35.8244 43.6385 39.7314 39.7315C43.6384 35.8245 45.8333 30.5254 45.8333 25.0001C45.8333 22.2642 45.2945 19.5551 44.2475 17.0275C43.2005 14.4999 41.6659 12.2032 39.7314 10.2687C37.7968 8.33414 35.5002 6.79956 32.9726 5.75259C30.4449 4.70562 27.7359 4.16675 25 4.16675Z" fill="#fff"/>
</svg>
